<svg width="400" height="400" viewBox="0 0 400 400" fill="none" xmlns="http://www.w3.org/2000/svg">
<circle cx="200" cy="200" r="200" fill="white"/>
<path d="M255.911 210.21L320.17 191.852V275.342C320.161 278.682 319.04 281.924 316.985 284.557C314.93 287.189 312.057 289.063 308.819 289.883L207.317 315.258C202.541 316.431 197.553 316.431 192.777 315.258L91.3876 289.883C88.1395 289.079 85.2545 287.21 83.1935 284.575C81.1325 281.939 80.0144 278.688 80.0179 275.342V191.852L144.277 210.238C146.302 210.839 148.404 211.14 150.516 211.13C154.434 211.118 158.283 210.098 161.692 208.168C165.101 206.237 167.956 203.461 169.981 200.107L200.094 150.107L230.254 200.107C232.275 203.451 235.123 206.218 238.525 208.14C241.926 210.063 245.765 211.076 249.672 211.083C251.783 211.099 253.885 210.805 255.911 210.21Z" fill="#494949"/>
<path d="M349.411 158.474L325.255 110.238C324.544 108.815 323.408 107.648 322.004 106.9C320.601 106.152 318.999 105.859 317.422 106.063L200.094 121.026L243.106 192.368C243.98 193.808 245.301 194.922 246.868 195.541C248.435 196.159 250.161 196.247 251.783 195.792L344.608 169.291C345.691 168.979 346.694 168.433 347.544 167.692C348.395 166.951 349.073 166.033 349.531 165.002C349.988 163.971 350.215 162.853 350.194 161.725C350.173 160.597 349.906 159.488 349.411 158.474V158.474ZM74.9709 110.238L50.815 158.474C50.3093 159.48 50.0319 160.585 50.0026 161.71C49.9733 162.835 50.1927 163.953 50.6452 164.983C51.0977 166.014 51.7722 166.932 52.6205 167.671C53.4687 168.411 54.4698 168.954 55.5523 169.262L148.377 195.764C149.999 196.219 151.725 196.131 153.292 195.513C154.859 194.894 156.18 193.78 157.054 192.34L200.094 121.026L82.7571 106.082C81.1892 105.887 79.5996 106.182 78.2058 106.926C76.812 107.67 75.6821 108.827 74.9709 110.238V110.238Z" fill="#494949"/>
</svg>
